# xmcd
#
# Track frame offsets:
#	150
#	11697
#	23099
#	35001
#	50164
#	60963
#	80390
#	95016
#	106924
#	124140
#	137699
#	150543
#	161046
#
# Disc length: 2369 seconds
#
# Revision: 1
# Processed by: cddbd v1.5.2PL0 Copyright (c) Steve Scherf et al.
# Submitted via: audiograbber 1.83.01
#
DISCID=a3093f0d
DTITLE=Jimmy Barnes - The Rhythm And The Blues
DYEAR=2009
DGENRE=R&B
TTITLE0=Red Hot
TTITLE1=That's Right
TTITLE2=Halleleujah I Love Her So
TTITLE3=That's How It Is (When You're In Love)
TTITLE4=Keep A Knockin'
TTITLE5=Reconsider Me
TTITLE6=Shake, Rattle And Roll
TTITLE7=Rocking Pneumonia And The Boogie Woogie Flu
TTITLE8=A Fool In Love
TTITLE9=You Can't Judge A Book By The Cover
TTITLE10=I Was Made To Love Her
TTITLE11=Young Blood
TTITLE12=My Baby Just Cares For Me
EXTD=
EXTT0=
EXTT1=
EXTT2=
EXTT3=
EXTT4=
EXTT5=
EXTT6=
EXTT7=
EXTT8=
EXTT9=
EXTT10=
EXTT11=
EXTT12=
PLAYORDER=
